<?xml version="1.0" encoding="utf-8"?>
<!-- Generator: Adobe Illustrator 19.2.1, SVG Export Plug-In . SVG Version: 6.00 Build 0)  -->
<svg version="1.1" id="Layer_1" xmlns="http://www.w3.org/2000/svg" xmlns:xlink="http://www.w3.org/1999/xlink" x="0px" y="0px"
	 width="500px" height="500px" viewBox="0 0 500 500" style="enable-background:new 0 0 500 500;" xml:space="preserve">
<g>
	<polygon class="st0" points="130,226.7 130,268.7 161.4,247.7 	"/>
	<polygon class="st0" points="238.5,196.1 238.5,137.5 140,203.2 184,232.6 	"/>
	<polygon class="st0" points="362.1,203.2 263.6,137.5 263.6,196.1 318.1,232.6 	"/>
	<polygon class="st0" points="140,292.3 238.5,357.9 238.5,299.3 184,262.8 	"/>
	<polygon class="st0" points="263.6,299.3 263.6,357.9 362.1,292.3 318.1,262.8 	"/>
	<polygon class="st0" points="251.1,218 206.6,247.7 251.1,277.4 295.5,247.7 	"/>
	<path class="st0" d="M251.1,11.2c-130.6,0-236.5,105.9-236.5,236.5c0,130.6,105.9,236.5,236.5,236.5
		c130.6,0,236.5-105.9,236.5-236.5C487.6,117.1,381.7,11.2,251.1,11.2z M397.3,292.3c0,0.6,0,1.1-0.1,1.6c0,0.2-0.1,0.4-0.1,0.5
		c-0.1,0.4-0.1,0.7-0.2,1.1c-0.1,0.2-0.1,0.4-0.2,0.6c-0.1,0.3-0.2,0.6-0.3,0.9c-0.1,0.2-0.2,0.4-0.3,0.6c-0.1,0.3-0.3,0.6-0.4,0.8
		c-0.1,0.2-0.2,0.4-0.4,0.6c-0.2,0.3-0.3,0.5-0.5,0.8c-0.1,0.2-0.3,0.4-0.4,0.5c-0.2,0.2-0.4,0.5-0.6,0.7c-0.2,0.2-0.3,0.3-0.5,0.5
		c-0.2,0.2-0.5,0.4-0.7,0.6c-0.2,0.1-0.4,0.3-0.6,0.4c-0.1,0-0.1,0.1-0.2,0.2L258,391.9c-2.1,1.4-4.5,2.1-7,2.1
		c-2.4,0-4.9-0.7-7-2.1l-133.7-89.1c-0.1,0-0.1-0.1-0.2-0.2c-0.2-0.1-0.4-0.3-0.6-0.4c-0.2-0.2-0.5-0.4-0.7-0.6
		c-0.2-0.2-0.3-0.3-0.5-0.5c-0.2-0.2-0.4-0.4-0.6-0.7c-0.1-0.2-0.3-0.4-0.4-0.5c-0.2-0.2-0.4-0.5-0.5-0.8c-0.1-0.2-0.2-0.4-0.4-0.6
		c-0.2-0.3-0.3-0.6-0.4-0.8c-0.1-0.2-0.2-0.4-0.3-0.6c-0.1-0.3-0.2-0.6-0.3-0.9c-0.1-0.2-0.1-0.4-0.2-0.6c-0.1-0.3-0.2-0.7-0.2-1.1
		c0-0.2-0.1-0.4-0.1-0.5c-0.1-0.5-0.1-1.1-0.1-1.6v-89.1c0-0.6,0-1.1,0.1-1.6c0-0.2,0.1-0.4,0.1-0.5c0.1-0.4,0.1-0.7,0.2-1.1
		c0.1-0.2,0.1-0.4,0.2-0.6c0.1-0.3,0.2-0.6,0.3-0.9c0.1-0.2,0.2-0.4,0.3-0.6c0.1-0.3,0.3-0.6,0.4-0.8c0.1-0.2,0.2-0.4,0.4-0.6
		c0.2-0.3,0.3-0.5,0.5-0.8c0.1-0.2,0.3-0.4,0.4-0.5c0.2-0.2,0.4-0.5,0.6-0.7c0.2-0.2,0.3-0.3,0.5-0.5c0.2-0.2,0.5-0.4,0.7-0.6
		c0.2-0.1,0.4-0.3,0.6-0.4c0.1,0,0.1-0.1,0.2-0.2l133.7-89.1c4.2-2.8,9.7-2.8,13.9,0l133.7,89.1c0.1,0,0.1,0.1,0.2,0.2
		c0.2,0.1,0.4,0.3,0.6,0.4c0.2,0.2,0.5,0.4,0.7,0.6c0.2,0.2,0.3,0.3,0.5,0.5c0.2,0.2,0.4,0.4,0.6,0.7c0.2,0.2,0.3,0.4,0.4,0.5
		c0.2,0.2,0.4,0.5,0.5,0.8c0.1,0.2,0.2,0.4,0.4,0.6c0.2,0.3,0.3,0.5,0.4,0.8c0.1,0.2,0.2,0.4,0.3,0.6c0.1,0.3,0.2,0.6,0.3,0.9
		c0.1,0.2,0.1,0.4,0.2,0.6c0.1,0.3,0.2,0.7,0.2,1.1c0,0.2,0.1,0.4,0.1,0.5c0.1,0.5,0.1,1.1,0.1,1.6V292.3z"/>
	<polygon class="st0" points="372.2,268.7 372.2,226.7 340.7,247.7 	"/>
</g>
</svg>
