<?xml version="1.0" encoding="utf-8"?>
<!-- Generator: Adobe Illustrator 19.2.1, SVG Export Plug-In . SVG Version: 6.00 Build 0)  -->
<svg version="1.1" id="Layer_1" xmlns="http://www.w3.org/2000/svg" xmlns:xlink="http://www.w3.org/1999/xlink" x="0px" y="0px"
	 width="33.3px" height="40.6px" viewBox="0 0 33.3 40.6" style="enable-background:new 0 0 33.3 40.6;" xml:space="preserve">
<path d="M31.6,2.2c-1.2-1.3-2.9-1.9-5.2-1.9c-0.8,0-1.6,0.1-2.4,0.2c-0.8,0.1-1.7,0.3-2.6,0.6c-0.5-0.7-1-1.1-1.7-1.1
	c-0.6,0-1,0.3-1.3,0.8c-0.1,0.3-0.3,0.9-0.6,1.8c-0.9,0.3-1.8,0.8-2.7,1.3c-1.3,0.8-2,1.6-2,2.6c0,0.2,0.1,0.5,0.2,0.7
	c0.1,0.3,0.3,0.4,0.6,0.4c0.2,0,0.5-0.1,0.8-0.3c0.4-0.2,0.8-0.4,1.3-0.6c-0.2,0.5-1.1,2.4-2.8,5.7c-1.9,3.2-3,5.1-3.3,5.6
	c-0.5-0.2-0.8-0.3-1.1-0.3S8.3,17.8,8,18c-0.5,0.4-0.8,0.9-0.8,1.6c0,0.5,0.1,1.2,0.4,2.1c-2.1,3.6-3.8,6.8-5,9.7
	C0.9,35.3,0,37.8,0,38.7c0,0.3,0.2,0.6,0.4,0.9c0.3,0.3,0.6,0.5,1.1,0.5c0.6,0,1-0.1,1.3-0.4C3,39.5,3.4,38.5,4,36.8
	c1-3,2.7-6.9,5.3-11.9c2.3,5.6,4.2,9.7,5.8,12.3c0.4,0.7,0.7,1.3,1,1.8c0.6,1.1,1.1,1.6,1.6,1.6c0.3,0,0.7-0.2,1.1-0.5
	c0.4-0.4,0.6-0.7,0.6-1.1c0-0.4-0.1-0.8-0.4-1.3c-1.1-1.8-1.9-3.1-2.4-4.1c-1.7-3.6-3-6.4-3.9-8.3c-0.6-1.2-1-2.4-1.3-3.6
	c1,0.1,1.7,0.1,2.1,0.1c2.6,0,5.3-0.5,8-1.5c3.5-1.3,6.3-3.1,8.4-5.5c2.3-2.5,3.4-5.2,3.4-8.1C33.3,4.9,32.7,3.4,31.6,2.2z
	 M29.7,10.2c-1,1.6-2.3,3.1-3.8,4.3c-3.5,2.8-7.3,4.2-11.3,4.2c-0.4,0-1-0.1-1.7-0.1c0.9-1.5,2.1-3.7,3.7-6.5c1.5-3,2.6-5.2,3.3-6.8
	c1-0.5,1.8-0.8,2.3-1c1.3-0.5,2.7-0.8,4-0.8c1.5,0,2.6,0.3,3.3,0.9s1.1,1.4,1.1,2.6C30.6,8.1,30.3,9.2,29.7,10.2z"/>
</svg>
