<svg xmlns="http://www.w3.org/2000/svg" preserveAspectRatio="xMidYMid" width="66" height="24" viewBox="0 0 66 24"><defs><style>.cls-3 { fill: #f9f9f9; }</style></defs><g id="60fpssvg" fill-rule="evenodd"><path d="M65 16s-2 0-2 0c-.552 0-1-.448-1-1 0 0 0-6 0-6 0-.552.448-1 1-1 0 0 2 0 2 0 .552 0 1 .448 1 1 0 0 0 6 0 6 0 .552-.448 1-1 1zm0-6c0-.552-.448-1-1-1s-1 .448-1 1c0 0 0 4 0 4 0 .552.448 1 1 1s1-.448 1-1c0 0 0-4 0-4z" id="path-1" class="cls-3"/><path d="M62 18s-6 0-6 0c-.552 0-1-.448-1-1 0 0 0-10 0-10 0-.552.448-1 1-1 0 0 6 0 6 0 .552 0 1 .448 1 1 0 0 0 10 0 10 0 .552-.448 1-1 1zm0-10c0-.552-.448-1-1-1 0 0-4 0-4 0-.552 0-1 .448-1 1 0 0 0 8 0 8 0 .552.448 1 1 1 0 0 4 0 4 0 .552 0 1-.448 1-1 0 0 0-8 0-8z" id="path-2" class="cls-3"/><path d="M55 20s-7 0-7 0c-.552 0-1-.448-1-1 0 0 0-14 0-14 0-.552.448-1 1-1 0 0 7 0 7 0 .552 0 1 .448 1 1 0 0 0 14 0 14 0 .552-.448 1-1 1zm0-14c0-.552-.448-1-1-1 0 0-5 0-5 0-.552 0-1 .448-1 1 0 0 0 12 0 12 0 .552.448 1 1 1 0 0 5 0 5 0 .552 0 1-.448 1-1 0 0 0-12 0-12z" id="path-3" class="cls-3"/><path d="M47 22s-10 0-10 0c-.552 0-1-.448-1-1 0 0 0-18 0-18 0-.552.448-1 1-1 0 0 10 0 10 0 .552 0 1 .448 1 1 0 0 0 18 0 18 0 .552-.448 1-1 1zm0-18c0-.552-.448-1-1-1 0 0-8 0-8 0-.552 0-1 .448-1 1 0 0 0 16 0 16 0 .552.448 1 1 1 0 0 8 0 8 0 .552 0 1-.448 1-1 0 0 0-16 0-16z" id="path-4" class="cls-3"/><path d="M36 24S1 24 1 24c-.552 0-1-.448-1-1C0 23 0 1 0 1c0-.552.448-1 1-1 0 0 35 0 35 0 .552 0 1 .448 1 1 0 0 0 22 0 22 0 .552-.448 1-1 1zm0-22c0-.552-.448-1-1-1C35 1 2 1 2 1c-.552 0-1 .448-1 1 0 0 0 20 0 20 0 .552.448 1 1 1 0 0 33 0 33 0 .552 0 1-.448 1-1 0 0 0-20 0-20z" id="path-5" class="cls-3"/></g></svg>