<svg xmlns="http://www.w3.org/2000/svg" preserveAspectRatio="xMidYMid" width="27" height="33" viewBox="0 0 27 33"><defs><style>.cls-2 { fill: #ffffff; }</style></defs><path d="M25 28s-3 0-3 0-2-6-2-6-9.023-.71-9.023-.71c-.06.748-3.064 1.523-3.053-2.058 0 0 0-8.957 0-8.957 0-1.972.68-3.553 2.662-3.572 2.082-.02-.836 5.136.75 5.237.664.06 5.314-.164 5.314-.164.772 0 1.4.63 1.4 1.4 0 .77-.628 1.39-1.4 1.39 0 0-5.65.434-5.65.434s0 4 0 4 9 0 9 0c.864 0 1.548.398 1.824 1.162C22.254 21.317 24 26 24 26s1 0 1 0c.926 0 2 .075 2 1 0 .923-1.074 1-2 1zM9.994 6.003C8.334 6.003 6.99 4.658 6.99 3c0-1.658 1.344-3 3.003-3 1.66 0 3.005 1.34 3.005 3 0 1.658-1.345 3.003-3.004 3.003zM1 22c0 4.62 3.54 9.812 10 10 3.77 0 6.927-2.598 8-6 0 0 .82 1.745.82 1.745C17.966 30.87 14.577 33 10.67 33 4.785 33 0 28.236 0 22.386c0-4.39 2.693-8.166 6.52-9.777C6.52 12.61 6 15 6 15c-2.633.818-5 3.885-5 7z" id="path-1" class="cls-2" fill-rule="evenodd"/></svg>