<svg xmlns="http://www.w3.org/2000/svg" preserveAspectRatio="xMidYMid" width="36" height="38" viewBox="0 0 36 38"><defs><style>.cls-2 { fill: #ffffff; }</style></defs><path d="M35.598 14.622c-.346.708-.456 1.37-.256 2.138.36 1.38-.234 2.516-1.02 3.59-1.11 1.523-3.76 3.573-5.282 3.994.06-.978.123-1.874.166-2.77.12-2.52-.07-5.02-.882-7.407-.39-1.148-1.034-2.243-1.733-3.243-.748-1.072-1.677-1.213-2.908-.768-1.54.557-3.063 1.204-4.646 1.6-1.7.423-3.51.38-5.032-.545-2.88-1.748-4.624.084-5.787 2.268-1.158 2.175-1.213 4.598-1.05 7.007.074 1.067.24 2.128.384 3.19.077.564-.026.797-.65.535-2.036-.856-3.79-1.988-4.423-4.297-.03-.103-.073-.217-.145-.29-.84-.86-.983-1.914-.928-3.054.013-.283-.117-.7-.325-.845-1.346-.933-1.44-3.795-.232-5.183.336-.386.58-.912.705-1.414.417-1.684 1.303-2.533 3.002-2.83.274-.047.598-.272.746-.51.548-.88 1.253-1.427 2.325-1.456.178-.005.483-.212.504-.358.166-1.185 1.023-1.435 1.99-1.61.272-.05.627-.207.748-.424C11.53.758 12.594.306 13.83.873c1.244.57 2.317.6 3.375-.43.693-.672 1.572-.43 2.404-.143.4.138.837.172 1.248.287.517.144 1.128.196 1.51.515.538.45.992.555 1.678.42 1.58-.308 2.816.298 3.726 1.654.232.347.643.662 1.037.793.965.318 1.572.93 1.945 1.857.085.213.35.452.568.498 1.475.304 2.512 1.032 2.78 2.625.03.184.21.37.364.5 1.446 1.223 1.97 3.455 1.13 5.172zM12.813 32.108c.405-.044.82-.007 1.23-.007.01-.052.02-.105.03-.157 1.117.224 2.233.463 3.355.664.302.054.654.076.93-.028 1.533-.58 3.122-.607 4.7-.423 1.942.228 3.03 1.725 3.197 4.17.006.082 0 .165.008.247.13 1.625-.798.91-2.263.488-.237-.068-.163.78-.42.793-.05.003-.1.07-.147.067-.56-.015-1.433-.86-1.433-.86s-1.287.776-1.806.755c-.172-.007-.096-.823-.194-.755-.568.398-1.42 1.04-1.997.7-.097-.056-.255-.024-.382-.006-.075.01-.144.107-.216.107-.51 0-1.404-.8-1.404-.8s-1.312.784-1.905.772c-.15-.003-.017-.826-.095-.773-.65.445-1.603 1.088-2.233.596-.067-.052-.62-.63-.767-.596-.394.094-.44.943-.84.973-.474.036-.777-.204-.788-.727-.027-1.222.075-2.424.684-3.513.6-1.07 1.582-1.56 2.757-1.687z" id="path-1" class="cls-2" fill-rule="evenodd"/></svg>