<svg xmlns="http://www.w3.org/2000/svg" preserveAspectRatio="xMidYMid" width="24" height="15" viewBox="0 0 24 15"><defs><style>.cls-3 { fill: #ffffff; }</style></defs><g id="codesvg" fill-rule="evenodd"><path d="M8.01 14.288s-.736.722-.736.722S-.01 7.86-.01 7.86s.368-.36.368-.36-.368-.36-.368-.36S7.274-.01 7.274-.01s.736.722.736.722S1.094 7.5 1.094 7.5s6.916 6.788 6.916 6.788z" id="path-1" class="cls-3"/><path d="M24.01 7.86s-7.284 7.15-7.284 7.15-.736-.722-.736-.722S22.906 7.5 22.906 7.5 15.99.712 15.99.712s.736-.722.736-.722 7.284 7.15 7.284 7.15-.368.36-.368.36.368.36.368.36z" id="path-2" class="cls-3"/></g></svg>