<svg xmlns="http://www.w3.org/2000/svg" preserveAspectRatio="xMidYMid" width="25" height="21" viewBox="0 0 25 21"><defs><style>.cls-3 { fill: #ffffff; }</style></defs><path d="M22.383 13.433s0 3.962 0 3.962c0 1.214-.317 2.117-.953 2.71-.635.59-1.704.886-3.206.886 0 0 0-1.068 0-1.068 1.086-.016 1.862-.222 2.328-.617.466-.396.7-.997.7-1.805 0 0 0-3.785 0-3.785 0-.963.17-1.694.513-2.192.343-.497.888-.825 1.635-.98 0 0 0-.096 0-.096-.747-.157-1.292-.486-1.635-.987-.342-.502-.514-1.266-.514-2.292 0 0 0-3.585 0-3.585 0-.808-.236-1.42-.71-1.84-.473-.42-1.245-.648-2.316-.688 0 0 0-1.058 0-1.058 1.34 0 2.37.304 3.085.91.715.61 1.073 1.5 1.073 2.676 0 0 0 4.114 0 4.114 0 .783.21 1.365.63 1.745.42.38 1.096.578 2.028.594 0 0 0 .94 0 .94-1.77.032-2.657.85-2.657 2.457zM2.67 17.395s0-3.962 0-3.962c0-1.606-.886-2.425-2.658-2.456 0 0 0-.94 0-.94.94-.017 1.618-.217 2.034-.6.416-.385.624-.965.624-1.74 0 0 0-4.114 0-4.114 0-2.344 1.386-3.54 4.16-3.586 0 0 0 1.058 0 1.058-1.064.04-1.834.267-2.312.682-.477.415-.716 1.03-.716 1.846 0 0 0 3.585 0 3.585 0 1.018-.17 1.778-.508 2.28-.34.502-.886.835-1.64 1 0 0 0 .094 0 .094.746.156 1.29.484 1.634.98.343.5.514 1.23.514 2.193 0 0 0 3.785 0 3.785 0 .8.23 1.397.687 1.793.458.396 1.238.605 2.34.63 0 0 0 1.068 0 1.068-1.503 0-2.572-.292-3.207-.88-.636-.588-.953-1.493-.953-2.715z" id="path-1" class="cls-3" fill-rule="evenodd"/></svg>