<svg xmlns="http://www.w3.org/2000/svg" preserveAspectRatio="xMidYMid" width="46" height="22" viewBox="0 0 46 22"><defs><style>.cls-3 { fill: #ffffff; }</style></defs><path d="M0 21.893s2.994-2.374 2.994-2.374 7.92.415 11.704-1.32c-.04-.118.02-4.3 4.083-6.33 4.065-2.033 4.9-2.374 4.9-2.374s2.086 2.005 2.995 2.374c-.06.055-1.09-2.327-.817-3.693.056.043 6.805-3.43 6.805-3.43s-.24 1.6.544 2.902c.785 1.3 1.633 2.11 1.633 2.11s-.69-3.475 1.09-5.012c1.777-1.538 5.71-1.175 7.62-2.374C45.462 1.174 46 0 46 0s.027 9.175-8.71 15.298c-5.506 4.037-8.438 1.847-8.438 1.847s0 2.9 0 2.9-5.31 1.42-7.893 1.32c-2.585-.1-3.812-.527-3.812-.527S33.4 15.625 41.1 7.122c.054.158-22.2 16.388-41.1 14.77z" id="path-1" class="cls-3" fill-rule="evenodd"/></svg>