<svg xmlns="http://www.w3.org/2000/svg" preserveAspectRatio="xMidYMid" width="59" height="22" viewBox="0 0 59 22"><defs><style>.cls-4 { fill: #ffffff; }</style></defs><g id="keyboard-iconsvg" fill-rule="evenodd"><g id="key"><path d="M21 22S1 22 1 22c-.552 0-1-.448-1-1C0 21 0 1 0 1c0-.552.448-1 1-1 0 0 20 0 20 0 .552 0 1 .448 1 1 0 0 0 20 0 20 0 .552-.448 1-1 1zm0-20c0-.552-.448-1-1-1C20 1 2 1 2 1c-.552 0-1 .448-1 1 0 0 0 18 0 18 0 .552.448 1 1 1 0 0 18 0 18 0 .552 0 1-.448 1-1 0 0 0-18 0-18z" id="path-1" class="cls-4"/><path d="M13 8s0 6 0 6-5-3-5-3 5-3 5-3z" id="path-2" class="cls-4"/></g><g id="key-1"><path d="M58 22s-20 0-20 0c-.552 0-1-.448-1-1 0 0 0-20 0-20 0-.552.448-1 1-1 0 0 20 0 20 0 .552 0 1 .448 1 1 0 0 0 20 0 20 0 .552-.448 1-1 1zm0-20c0-.552-.448-1-1-1 0 0-18 0-18 0-.552 0-1 .448-1 1 0 0 0 18 0 18 0 .552.448 1 1 1 0 0 18 0 18 0 .552 0 1-.448 1-1 0 0 0-18 0-18z" id="path-3" class="cls-4"/><path d="M46 8s0 6 0 6 5-3 5-3-5-3-5-3z" id="path-4" class="cls-4"/></g></g></svg>