<svg xmlns="http://www.w3.org/2000/svg" preserveAspectRatio="xMidYMid" width="53" height="34" viewBox="0 0 53 34"><defs><style>.cls-3 { fill: #ffffff; } .cls-6 { fill: #070606; }</style></defs><g id="notificationsvg"><circle id="circle-1" class="cls-3" cx="45" cy="8" r="8"/><path d="M42 7s0 1 0 1S0 7 0 7s42 0 42 0z" id="path-1" class="cls-3" fill-rule="evenodd"/><path d="M45 7s1 0 1 0 0 27 0 27-1-27-1-27z" id="path-2" class="cls-3" fill-rule="evenodd"/><path d="M47.862 11.99s-5.847 0-5.847 0 0-1.16 0-1.16 2.1-1.998 2.1-1.998c.62-.6 1.028-1.017 1.218-1.248.192-.232.33-.447.412-.645.085-.198.126-.402.126-.615 0-.316-.09-.552-.277-.706-.185-.155-.43-.233-.74-.233-.324 0-.64.07-.944.21-.306.14-.625.34-.957.6 0 0-.96-1.073-.96-1.073.41-.332.752-.565 1.023-.7.27-.138.567-.243.887-.317.32-.073.68-.11 1.076-.11.522 0 .983.09 1.383.27.4.18.712.43.933.754.22.324.33.695.33 1.11 0 .364-.067.705-.202 1.023-.135.317-.345.644-.63.978-.283.335-.783.81-1.5 1.43 0 0-1.076.953-1.076.953s0 .076 0 .076 3.644 0 3.644 0 0 1.4 0 1.4z" id="path-3" class="cls-6" fill-rule="evenodd"/></g></svg>