<svg xmlns="http://www.w3.org/2000/svg" preserveAspectRatio="xMidYMid" width="32" height="18" viewBox="0 0 32 18"><defs><style>.cls-3 { fill: #ffffff; }</style></defs><g id="velocitysvg" fill-rule="evenodd"><path d="M22.957 18S15.827-.007 15.827-.007s1.732 0 1.732 0 4.77 12.24 4.77 12.24c.632 1.568 1.108 2.938 1.425 4.108 0 0 .102 0 .102 0 .464-1.5.94-2.882 1.425-4.14 0 0 4.77-12.208 4.77-12.208s1.73 0 1.73 0S24.655 18 24.655 18s-1.697 0-1.697 0z" id="path-1" class="cls-3"/><path d="M13 2s0 1 0 1S0 3 0 3s13-1 13-1z" id="path-2" class="cls-3"/><path d="M15 9s0 1 0 1-10 0-10 0 10-1 10-1z" id="path-3" class="cls-3"/><path d="M17 17s0 1 0 1-7 0-7 0 7-1 7-1z" id="path-4" class="cls-3"/><path d="M27 1s0 1 0 1-5 0-5 0 5-1 5-1z" id="path-5" class="cls-3"/><path d="M26 6s0 1 0 1-3 0-3 0 3-1 3-1z" id="path-6" class="cls-3"/></g></svg>