<svg id="card.svg" xmlns="http://www.w3.org/2000/svg" width="59.44" height="85.438" viewBox="0 0 59.44 85.438">
  <defs>
    <style>
      .badge-1 {
        fill: #1b1b1b;
      }

      .badge-1, .badge-2 {
        fill-rule: evenodd;
      }

      .badge-2 {
        fill: #ff0078;
      }
    </style>
  </defs>
  <path id="Rechthoek_4" class="badge-1" d="M1171.24,653.342l33.94-33.942,22.63,22.628-33.94,33.941Z" transform="translate(-1169.34 -618.125)"/>
  <path id="Vorm_6" data-name="Vorm 6" class="badge-1" d="M1178,663v16l7,10,15,13h2s23.43,9.261,18-17c-4.82-3.442-4.88-4.443-5-5s-2-5-2-5v-5l-5-4h-3Z" transform="translate(-1169.34 -618.125)"/>
  <path id="Vorm_5" data-name="Vorm 5" class="badge-2" d="M1203.1,618.647l-33.29,33.288a1.764,1.764,0,0,0,0,2.419l6.27,6.264,0.29,15.8c0.07,0.214.21,5.194,4.91,11.031l0.28,0.284,18.65,15.091a1.662,1.662,0,0,0,2.28-.141l0.14-.143a1.71,1.71,0,0,0-.29-2.419l-18.57-15.02c-3.85-4.839-4.06-8.753-4.06-8.753l-0.22-12.167,7.55,7.545-0.28,8.823a1.707,1.707,0,1,0,3.41.143l0.71-19.923a3.111,3.111,0,0,1,2.41,0c1.36,0.641,2,2.562,2.28,3.416l-0.14,11.812A1.713,1.713,0,0,0,1197,677.7c6.97,0.572,7.97,7.687,7.97,7.972a1.666,1.666,0,0,0,1.92,1.5,2.081,2.081,0,0,0,1.07-.5,1.615,1.615,0,0,0,.5-1.352c-0.43-3.273-2.85-9.393-9.47-10.747l0.07-1.494,7.04-7.042,4.63,4.626c3.27,3.275,1.5,7.757,1.43,7.97a1.793,1.793,0,0,0,.42,1.85l4.7,4.7a1.71,1.71,0,1,0,2.42-2.418l-4.13-4.129a10.707,10.707,0,0,0-2.49-10.6l-4.63-4.627,19.85-19.845a1.764,1.764,0,0,0,0-2.419l-22.64-22.635A2.112,2.112,0,0,0,1203.1,618.647Zm21.42,23.843-25.6,25.607,0.07-4.2c0-.142-0.07-0.214-0.07-0.356-0.07-.5-0.86-4.412-3.99-5.978-1.85-1-3.98-.855-6.33.354a1.586,1.586,0,0,0-.93,1.493l-0.28,7.543L1173.44,653l30.87-30.87,20.29,20.285Zm-38.56,9.237,7.68-7.682a1.711,1.711,0,0,0-2.42-2.42l-7.68,7.682A1.711,1.711,0,0,0,1185.96,651.727Zm2.64,4.057a1.765,1.765,0,0,0,2.42,0l15.08-15.08a1.711,1.711,0,0,0-2.42-2.42l-15.08,15.08A1.764,1.764,0,0,0,1188.6,655.784Zm21.13-6.468a1.764,1.764,0,0,0,2.42,0l6.4-6.4a1.711,1.711,0,0,0-2.42-2.42l-6.4,6.4A1.689,1.689,0,0,0,1209.73,649.316Z" transform="translate(-1169.34 -618.125)"/>
</svg>