<?xml version="1.0" encoding="utf-8"?>
<!-- Generator: Adobe Illustrator 21.0.2, SVG Export Plug-In . SVG Version: 6.00 Build 0)  -->
<svg width="110px" height="30px" class="c-logo" version="1.1" xmlns="http://www.w3.org/2000/svg" xmlns:xlink="http://www.w3.org/1999/xlink" x="0px" y="0px"
	 viewBox="0 0 75 16" style="enable-background:new 0 0 75 16;" xml:space="preserve">
<path id="i" d="M0,6.3v9.6h2.7V3.4C1.1,3.5,0,4.7,0,6.3z"/>
<path id="n" d="M9,5.8c0.8-0.1,1.7-0.1,2.5,0c0.5,0.1,0.9,0.6,0.9,1.1v8.9h2.7V6.4C15.3,5,14.4,3.8,13,3.5c-0.9-0.1-1.8-0.2-2.7-0.1
	c-0.9,0-1.8,0-2.7,0.1C6.3,3.8,5.4,5,5.5,6.4v9.5h2.7V7C8.1,6.4,8.5,5.9,9,5.8z"/>
<path id="t1" d="M18,2.9v8.6c0,0.5,0,1.5,0,1.9c0,1.1,0.8,2.1,1.9,2.4c0.8,0.2,1.7,0.2,2.6,0.2h1.7v-2.5h-1.5c-0.5,0-1,0-1.4-0.2
	c-0.3-0.2-0.5-0.5-0.5-0.9c0-0.3,0-0.9,0-1.2V5.9h3.5V3.4h-3.5V0C19.2,0.1,18,1.4,18,2.9L18,2.9z"/>
<path id="r" d="M30.2,6c0.4-0.1,0.8-0.1,1.3-0.1h1.7V3.4h-1.7c-0.9,0-1.8,0-2.7,0.1c-1.3,0.3-2.2,1.5-2.1,2.9v9.4h2.7V7.1
	C29.3,6.6,29.7,6.1,30.2,6z"/>
<path id="a" d="M43.7,6.3C43.8,5.1,43.1,4,42,3.7c-0.9-0.2-1.9-0.3-2.9-0.2h-3.3v2.4h3.3c0.5,0,1,0,1.4,0.1c0.3,0.1,0.5,0.5,0.5,0.8
	v0.5c0,0.4-0.3,0.7-0.6,0.7c0,0,0,0,0,0h-1.1c-0.9,0-1.8,0-2.7,0.1c-0.9,0.1-2.4,0.7-2.4,3.1v1.7l0,0c-0.2,1.3,0.6,2.5,1.8,2.9
	c1,0.2,2,0.3,2.9,0.2c0.9,0,1.8,0,2.7-0.1c1.4-0.3,2.1-1.3,2.1-3V7.8C43.7,7.3,43.7,6.7,43.7,6.3z M41.1,12.2c0,0.6-0.3,1.1-0.9,1.2
	c-0.4,0.1-0.9,0.1-1.3,0.1c-0.5,0-1,0-1.4-0.1c-0.4-0.2-0.7-0.6-0.6-1.1v-0.7l0,0c-0.1-0.6,0.2-1.1,0.8-1.3c0.5-0.1,0.9-0.1,1.4-0.1
	h2.1V12.2z"/>
<path id="c" d="M48.8,3.6c-1.3,0.2-2.3,1.5-2.1,2.8c0,0.9,0,2,0,3.3s0,2.3,0,3.3c-0.2,1.3,0.8,2.6,2.1,2.8c0.9,0.1,1.8,0.2,2.7,0.1
	h2.9v-2.5h-2.9c-0.4,0-0.8,0-1.2-0.1c-0.5-0.1-0.9-0.5-0.9-1.1c0-0.7,0-1.5,0-2.6s0-2,0-2.6c0-0.5,0.3-1,0.9-1.1
	c0.4-0.1,0.8-0.1,1.2-0.1h2.8V3.4h-2.8C50.6,3.4,49.7,3.4,48.8,3.6L48.8,3.6z"/>
<path id="t2" d="M56.9,11.5c0,0.5,0,1.5,0,1.9c0,1.1,0.8,2.1,1.9,2.4c0.8,0.1,1.7,0.2,2.6,0.2h1.7v-2.5h-1.5c-0.5,0-1,0-1.4-0.2
	c-0.3-0.2-0.5-0.5-0.5-0.9c0-0.3,0-0.9,0-1.2V5.9h3.5V3.4h-3.5V0c-1.5,0.1-2.7,1.4-2.7,2.9L56.9,11.5L56.9,11.5z"/>
<path id="o" d="M75,9.7c0-1.2,0-2.4,0-3.4c0.2-1.3-0.8-2.6-2.1-2.8v0c-0.9-0.1-1.8-0.2-2.7-0.1c-0.9,0-1.8,0-2.7,0.1
	c-1.3,0.2-2.3,1.5-2.1,2.8c0,0.9,0,2.1,0,3.4s0,2.4,0,3.4c-0.2,1.3,0.8,2.6,2.1,2.8c0.9,0.1,1.8,0.2,2.7,0.1c0.9,0,1.8,0,2.7-0.1
	c1.3-0.2,2.3-1.5,2.1-2.8C75,12.1,75,10.9,75,9.7z M72.3,12.4L72.3,12.4c0,0.5-0.3,1-0.9,1.1c-0.8,0.1-1.7,0.1-2.5,0
	c-0.5-0.1-0.9-0.5-0.9-1.1c0-0.7,0-1.7,0-2.8s0-2.1,0-2.7c0-0.5,0.3-1,0.9-1.1c0.8-0.1,1.7-0.1,2.5,0c0.5,0.1,0.9,0.5,0.9,1.1
	c0,0.7,0,1.7,0,2.8S72.3,11.7,72.3,12.4z"/>
</svg>