<svg xmlns="http://www.w3.org/2000/svg" width="45" height="45" viewBox="0 0 36.688 30">
  <path class="mmh" d="M734.53,256c-2.216,0-4.01,2.237-4.01,5s1.794,5,4.01,5,4.01-2.237,4.01-5S736.745,256,734.53,256Zm-26.066,0c-2.215,0-4.01,2.237-4.01,5s1.8,5,4.01,5,4.01-2.237,4.01-5S710.68,256,708.464,256Zm30.888,20.135a1,1,0,0,0-1.37.364,13.893,13.893,0,0,1-.785,1.194c-0.551-1.839-2.273-4.693-7.68-4.693-7.929,0-8.02,6.93-8.02,7v4c-8.164,0-13.555-2.454-16.485-7.5a1,1,0,0,0-1.735,1c3.272,5.64,9.4,8.5,18.22,8.5s14.947-2.859,18.22-8.5A1,1,0,0,0,739.352,276.135Z" transform="translate(-703.156 -256)"/>
</svg>
