<?xml version="1.0" encoding="utf-8"?><svg xmlns="http://www.w3.org/2000/svg" width="500" height="500" viewBox="0 0 500 500"><path class="st0" d="M130 226.7v42l31.4-21M238.5 196.1v-58.6L140 203.2l44 29.4M362.1 203.2l-98.5-65.7v58.6l54.5 36.5M140 292.3l98.5 65.6v-58.6L184 262.8M263.6 299.3v58.6l98.5-65.6-44-29.5M251.1 218l-44.5 29.7 44.5 29.7 44.4-29.7"/><path class="st0" d="M251.1 11.2c-130.6 0-236.5 105.9-236.5 236.5s105.9 236.5 236.5 236.5 236.5-105.9 236.5-236.5S381.7 11.2 251.1 11.2zm146.2 281.1c0 .6 0 1.1-.1 1.6 0 .2-.1.4-.1.5-.1.4-.1.7-.2 1.1-.1.2-.1.4-.2.6-.1.3-.2.6-.3.9-.1.2-.2.4-.3.6-.1.3-.3.6-.4.8-.1.2-.2.4-.4.6-.2.3-.3.5-.5.8-.1.2-.3.4-.4.5-.2.2-.4.5-.6.7-.2.2-.3.3-.5.5s-.5.4-.7.6c-.2.1-.4.3-.6.4-.1 0-.1.1-.2.2L258 391.9c-2.1 1.4-4.5 2.1-7 2.1-2.4 0-4.9-.7-7-2.1l-133.7-89.1c-.1 0-.1-.1-.2-.2-.2-.1-.4-.3-.6-.4-.2-.2-.5-.4-.7-.6-.2-.2-.3-.3-.5-.5s-.4-.4-.6-.7c-.1-.2-.3-.4-.4-.5-.2-.2-.4-.5-.5-.8-.1-.2-.2-.4-.4-.6-.2-.3-.3-.6-.4-.8-.1-.2-.2-.4-.3-.6-.1-.3-.2-.6-.3-.9-.1-.2-.1-.4-.2-.6-.1-.3-.2-.7-.2-1.1 0-.2-.1-.4-.1-.5-.1-.5-.1-1.1-.1-1.6v-89.1c0-.6 0-1.1.1-1.6 0-.2.1-.4.1-.5.1-.4.1-.7.2-1.1.1-.2.1-.4.2-.6.1-.3.2-.6.3-.9.1-.2.2-.4.3-.6.1-.3.3-.6.4-.8.1-.2.2-.4.4-.6.2-.3.3-.5.5-.8.1-.2.3-.4.4-.5.2-.2.4-.5.6-.7.2-.2.3-.3.5-.5s.5-.4.7-.6c.2-.1.4-.3.6-.4.1 0 .1-.1.2-.2L244 103.8c4.2-2.8 9.7-2.8 13.9 0l133.7 89.1c.1 0 .1.1.2.2.2.1.4.3.6.4.2.2.5.4.7.6.2.2.3.3.5.5s.4.4.6.7c.2.2.3.4.4.5.2.2.4.5.5.8.1.2.2.4.4.6.2.3.3.5.4.8.1.2.2.4.3.6.1.3.2.6.3.9.1.2.1.4.2.6.1.3.2.7.2 1.1 0 .2.1.4.1.5.1.5.1 1.1.1 1.6v89z"/><path class="st0" d="M372.2 268.7v-42l-31.5 21"/></svg>