<?xml version="1.0" encoding="utf-8"?><svg xmlns="http://www.w3.org/2000/svg" width="33.3" height="40.6" viewBox="0 0 33.3 40.6"><path d="M31.6 2.2C30.4.9 28.7.3 26.4.3c-.8 0-1.6.1-2.4.2-.8.1-1.7.3-2.6.6-.5-.7-1-1.1-1.7-1.1-.6 0-1 .3-1.3.8-.1.3-.3.9-.6 1.8-.9.3-1.8.8-2.7 1.3-1.3.8-2 1.6-2 2.6 0 .2.1.5.2.7.1.3.3.4.6.4.2 0 .5-.1.8-.3.4-.2.8-.4 1.3-.6-.2.5-1.1 2.4-2.8 5.7-1.9 3.2-3 5.1-3.3 5.6-.5-.2-.8-.3-1.1-.3s-.5.1-.8.3c-.5.4-.8.9-.8 1.6 0 .5.1 1.2.4 2.1-2.1 3.6-3.8 6.8-5 9.7C.9 35.3 0 37.8 0 38.7c0 .3.2.6.4.9.3.3.6.5 1.1.5.6 0 1-.1 1.3-.4.2-.2.6-1.2 1.2-2.9 1-3 2.7-6.9 5.3-11.9 2.3 5.6 4.2 9.7 5.8 12.3.4.7.7 1.3 1 1.8.6 1.1 1.1 1.6 1.6 1.6.3 0 .7-.2 1.1-.5.4-.4.6-.7.6-1.1 0-.4-.1-.8-.4-1.3-1.1-1.8-1.9-3.1-2.4-4.1-1.7-3.6-3-6.4-3.9-8.3-.6-1.2-1-2.4-1.3-3.6 1 .1 1.7.1 2.1.1 2.6 0 5.3-.5 8-1.5 3.5-1.3 6.3-3.1 8.4-5.5 2.3-2.5 3.4-5.2 3.4-8.1 0-1.8-.6-3.3-1.7-4.5zm-1.9 8c-1 1.6-2.3 3.1-3.8 4.3-3.5 2.8-7.3 4.2-11.3 4.2-.4 0-1-.1-1.7-.1.9-1.5 2.1-3.7 3.7-6.5 1.5-3 2.6-5.2 3.3-6.8 1-.5 1.8-.8 2.3-1 1.3-.5 2.7-.8 4-.8 1.5 0 2.6.3 3.3.9s1.1 1.4 1.1 2.6c0 1.1-.3 2.2-.9 3.2z"/></svg>