<?xml version="1.0" encoding="utf-8"?><svg xmlns="http://www.w3.org/2000/svg" width="78" height="74" viewBox="-258 383.9 78 74"><path fill="#F8AA23" d="M-193.4 412.8H-205s.1 30 0 30c-4.1-6.2-9-8.8-9-8.8v-50.2h19.1s14.2-1.1 15 13.8c-.1 16.6-13.5 15.2-13.5 15.2zm-3.4-21.7h-7.8v13.8h9.9s5.7.5 5.7-6.6c0-7.8-7.8-7.2-7.8-7.2zm-11.6 53.1s.9.8.3 1.4c-.6.6-1.1 0-1.1 0s-10.9-8.8-27.2-8.8c-13.6 0-18.7 3.8-20 5.1 0 0-.1 0-.1.1-.2.2-.7.6-1.3.1-.9-.8 0-1.5 0-1.5 6.2-4.5 6.8-9.2 6.8-9.2s.3-1 1-.6c.7.5.1 2 .1 2-.7 2.4-3.2 4.8-1 4 12.4-3.5 23.2-1.6 28.4.1 4.7 1.5-1.4-1.6-.3-7.1-1.4 1-3 1.8-4.8 2.4-2.2.7-4.6 1.1-7.2 1.1-3.3 0-6.1-.4-8.6-1.2s-4.6-2-6.2-3.4c-1.7-1.5-3-3.2-4-5.3-.9-2.1-1.5-4.3-1.7-6.8h8.7c.3 1.5.8 2.7 1.5 3.8.7 1.1 1.6 2 2.6 2.7 1 .7 2.2 1.2 3.4 1.6 1.3.3 2.6.5 4 .5s2.8-.1 3.9-.4c1.2-.3 2.2-.7 3.1-1.3.9-.5 1.5-1.2 2-2s.7-1.7.7-2.6c0-1-.2-1.8-.7-2.5-.4-.7-1.2-1.3-2.2-1.8s-2.3-1-4-1.5c-1.6-.5-3.6-.9-6-1.4-2.7-.6-5.1-1.3-7-2.1-2-.8-3.6-1.8-4.8-2.9-1.3-1.1-2.2-2.4-2.8-3.8-.6-1.4-.9-3.1-.9-5 0-2 .4-3.9 1.3-5.6.8-1.7 2-3.2 3.5-4.4 1.5-1.2 3.4-2.2 5.5-2.9 2.1-.7 4.5-1 7.1-1s5 .3 7.1 1c2.2.7 4 1.7 5.7 3 1.6 1.3 2.9 2.9 3.9 4.7 1 1.9 1.6 4 1.8 6.3h-8.6c-1-4.5-4.2-6.8-9.6-6.8-2.9 0-5.1.5-6.6 1.5s-2.3 2.3-2.3 4c0 .7.2 1.3.5 1.8s.9 1 1.6 1.4c.7.4 1.7.8 2.8 1.2 1.1.4 2.5.7 4.2 1 1.4.3 2.9.6 4.4 1 1.5.4 3 .8 4.4 1.3 1.4.5 2.8 1.1 4 1.8s2.4 1.6 3.3 2.6c1 1 1.7 2.3 2.3 3.7.6 1.4.8 3 .8 4.9 0 2.2-.4 4.2-1.3 6 0 0-1.5 4.8-1.5 8.1.1 3.3 11.1 11.7 11.1 11.7zm-48.2-.2c.3-.2.6-.4.8-.7.2-.1.3-.3.5-.4.7-.5 2-1.4 4.4-2.3.5-.2.1 0 .9-.3.2-.1.5-.2.8-.2 2.7-.8 5.3-1.2 7.8-1.5.2 0 .3 0 .5 0 .1 0 .3 0 .4 0 1.4-.1 2.9-.2 4.6-.2.2 0 .3 0 .5 0 .1 0 .1 0 .2 0 1.2 0 2.3.1 3.3.2 3.2.3 6.5 1 9.6 2 .2.1.5.2.6.2 2.4.8 4.7 1.7 6.6 2.8 0 0 .3.1.7.4.2.1.3.2.5.3.1.1.3.2.4.3 1.2.9 2.7 2.3 3.4 4.2.1.2.2.4.2.6.1.5.2 1.1.2 1.7-.3 4.2-3.7 6.9-12.4 7.1-7.9.1-8.4.1-8.4.1s-.9 0-.9-.9c0-.7.4-.7.9-.6 0 0 19.3 2.3 19.1-5.6-.1-2.6-1.8-4-2.2-4.2-4.3-2.6-12.3-6.3-22.5-6.3-13.5 0-18.3 4.1-19.3 5.2-.1.1-.6.6-1.3 0-.6-1.1-.1-1.8.1-1.9zm7.3-.4c.3.3.4.7.1 1.1-.7.8-2.5 3.3-2.6 4.9-.1 1.6.9 1.9.9 1.9.4.1.6.5.5.9-.1.3-.4.6-.7.6-.1 0-.1 0-.2 0-.8-.2-2.2-1.1-2-3.4.2-2.5 2.9-5.7 3-5.8.2-.4.6-.4 1-.2zm-.1 9c3.5 0 3.7-.6 4-1.8.1-.5 0-.7 0-.7-.2-.3-.8-.5-1-.5-.4-.1-.7-.4-.6-.8.1-.4.4-.7.8-.6.1 0 1.4.2 2 1.2.3.4.5 1 .3 2-.5 2-1.4 2.9-5.4 2.9-.4 0-.7-.3-.7-.7-.2-.6.2-1 .6-1zm4.4-7c0 .4-.3.8-.7.8-.4 0-.7-.3-.7-.8 0-1.9 2.3-3.2 2.5-3.4.4-.2.8-.1 1 .3.2.4.1.8-.3 1-.5.3-1.8 1.2-1.8 2.1z"/></svg>