<svg xmlns="http://www.w3.org/2000/svg"><defs><style>.cls-3 { fill: #f9f9f9; }</style><style>.cls-2 { fill: #ffffff; }</style><style>.cls-2 { fill: #ffffff; }</style><style>.cls-3 { fill: #ffffff; }</style><style>.cls-3 { fill: #ffffff; }</style><style>.cls-3 { fill: #ffffff; }</style><style>.cls-4 { fill: #ffffff; }</style><style>.cls-3 { fill: #070606; }</style><style>.cls-3 { fill: #ffffff; } .cls-6 { fill: #070606; }</style><style>.cls-3 { fill: #ffffff; }</style></defs><symbol viewBox="0 0 66 24" id="shape-60fps"><title>60fps</title><g id="60fps-60fpssvg" fill-rule="evenodd"><path d="M65 16s-2 0-2 0c-.552 0-1-.448-1-1 0 0 0-6 0-6 0-.552.448-1 1-1 0 0 2 0 2 0 .552 0 1 .448 1 1 0 0 0 6 0 6 0 .552-.448 1-1 1zm0-6c0-.552-.448-1-1-1s-1 .448-1 1c0 0 0 4 0 4 0 .552.448 1 1 1s1-.448 1-1c0 0 0-4 0-4z" id="60fps-path-1" class="cls-3"/><path d="M62 18s-6 0-6 0c-.552 0-1-.448-1-1 0 0 0-10 0-10 0-.552.448-1 1-1 0 0 6 0 6 0 .552 0 1 .448 1 1 0 0 0 10 0 10 0 .552-.448 1-1 1zm0-10c0-.552-.448-1-1-1 0 0-4 0-4 0-.552 0-1 .448-1 1 0 0 0 8 0 8 0 .552.448 1 1 1 0 0 4 0 4 0 .552 0 1-.448 1-1 0 0 0-8 0-8z" id="60fps-path-2" class="cls-3"/><path d="M55 20s-7 0-7 0c-.552 0-1-.448-1-1 0 0 0-14 0-14 0-.552.448-1 1-1 0 0 7 0 7 0 .552 0 1 .448 1 1 0 0 0 14 0 14 0 .552-.448 1-1 1zm0-14c0-.552-.448-1-1-1 0 0-5 0-5 0-.552 0-1 .448-1 1 0 0 0 12 0 12 0 .552.448 1 1 1 0 0 5 0 5 0 .552 0 1-.448 1-1 0 0 0-12 0-12z" id="60fps-path-3" class="cls-3"/><path d="M47 22s-10 0-10 0c-.552 0-1-.448-1-1 0 0 0-18 0-18 0-.552.448-1 1-1 0 0 10 0 10 0 .552 0 1 .448 1 1 0 0 0 18 0 18 0 .552-.448 1-1 1zm0-18c0-.552-.448-1-1-1 0 0-8 0-8 0-.552 0-1 .448-1 1 0 0 0 16 0 16 0 .552.448 1 1 1 0 0 8 0 8 0 .552 0 1-.448 1-1 0 0 0-16 0-16z" id="60fps-path-4" class="cls-3"/><path d="M36 24S1 24 1 24c-.552 0-1-.448-1-1C0 23 0 1 0 1c0-.552.448-1 1-1 0 0 35 0 35 0 .552 0 1 .448 1 1 0 0 0 22 0 22 0 .552-.448 1-1 1zm0-22c0-.552-.448-1-1-1C35 1 2 1 2 1c-.552 0-1 .448-1 1 0 0 0 20 0 20 0 .552.448 1 1 1 0 0 33 0 33 0 .552 0 1-.448 1-1 0 0 0-20 0-20z" id="60fps-path-5" class="cls-3"/></g></symbol><symbol viewBox="0 0 27 33" id="shape-accessible"><title>accessible</title><path d="M25 28s-3 0-3 0-2-6-2-6-9.023-.71-9.023-.71c-.06.748-3.064 1.523-3.053-2.058 0 0 0-8.957 0-8.957 0-1.972.68-3.553 2.662-3.572 2.082-.02-.836 5.136.75 5.237.664.06 5.314-.164 5.314-.164.772 0 1.4.63 1.4 1.4 0 .77-.628 1.39-1.4 1.39 0 0-5.65.434-5.65.434s0 4 0 4 9 0 9 0c.864 0 1.548.398 1.824 1.162C22.254 21.317 24 26 24 26s1 0 1 0c.926 0 2 .075 2 1 0 .923-1.074 1-2 1zM9.994 6.003C8.334 6.003 6.99 4.658 6.99 3c0-1.658 1.344-3 3.003-3 1.66 0 3.005 1.34 3.005 3 0 1.658-1.345 3.003-3.004 3.003zM1 22c0 4.62 3.54 9.812 10 10 3.77 0 6.927-2.598 8-6 0 0 .82 1.745.82 1.745C17.966 30.87 14.577 33 10.67 33 4.785 33 0 28.236 0 22.386c0-4.39 2.693-8.166 6.52-9.777C6.52 12.61 6 15 6 15c-2.633.818-5 3.885-5 7z" id="accessible-path-1" class="cls-2" fill-rule="evenodd"/></symbol><symbol viewBox="0 0 36 38" id="shape-borat"><title>borat</title><path d="M35.598 14.622c-.346.708-.456 1.37-.256 2.138.36 1.38-.234 2.516-1.02 3.59-1.11 1.523-3.76 3.573-5.282 3.994.06-.978.123-1.874.166-2.77.12-2.52-.07-5.02-.882-7.407-.39-1.148-1.034-2.243-1.733-3.243-.747-1.072-1.676-1.213-2.907-.768-1.54.557-3.063 1.204-4.646 1.6-1.7.423-3.51.38-5.032-.545-2.88-1.747-4.624.085-5.787 2.27-1.158 2.174-1.213 4.597-1.05 7.006.074 1.067.24 2.128.384 3.19.077.564-.026.797-.65.535-2.036-.855-3.79-1.987-4.423-4.296-.03-.103-.074-.217-.146-.29-.84-.86-.983-1.914-.928-3.054.013-.283-.117-.7-.325-.845-1.345-.933-1.44-3.795-.23-5.183.335-.386.58-.912.704-1.414.417-1.684 1.303-2.533 3.002-2.83.274-.047.598-.272.746-.51.548-.88 1.253-1.427 2.325-1.456.178-.005.483-.212.504-.358.167-1.185 1.024-1.435 1.99-1.61.273-.05.628-.207.75-.424C11.53.758 12.593.306 13.83.873c1.244.57 2.317.6 3.375-.43.693-.672 1.572-.43 2.404-.143.4.138.836.172 1.247.287.517.144 1.128.196 1.51.515.538.45.992.555 1.678.42 1.58-.308 2.816.298 3.726 1.654.233.347.644.662 1.038.793.965.317 1.572.93 1.945 1.856.085.213.35.452.568.498 1.476.304 2.513 1.032 2.78 2.625.03.183.21.37.365.5 1.446 1.222 1.97 3.454 1.13 5.17zM12.813 32.108c.405-.044.82-.007 1.23-.007.01-.05.02-.104.03-.156 1.117.224 2.233.463 3.355.664.302.054.654.076.93-.028 1.533-.58 3.122-.607 4.7-.423 1.942.228 3.03 1.725 3.197 4.17.006.082 0 .165.008.247.13 1.625-.798.91-2.263.488-.237-.068-.163.78-.42.793-.05.003-.1.07-.147.067-.56-.015-1.433-.86-1.433-.86s-1.287.776-1.806.755c-.172-.007-.096-.823-.194-.755-.568.398-1.42 1.04-1.997.7-.097-.056-.255-.024-.382-.006-.074.01-.143.107-.215.107-.51 0-1.404-.8-1.404-.8s-1.31.784-1.904.772c-.15-.003-.017-.826-.095-.773-.65.445-1.602 1.088-2.232.596-.067-.052-.62-.63-.767-.596-.393.094-.44.943-.84.973-.473.036-.776-.204-.787-.727-.027-1.222.075-2.424.684-3.513.6-1.07 1.582-1.56 2.757-1.687z" id="borat-path-1" class="cls-2" fill-rule="evenodd"/></symbol><symbol viewBox="0 0 24 15" id="shape-code"><title>code</title><g id="code-codesvg" fill-rule="evenodd"><path d="M8.01 14.288s-.736.722-.736.722S-.01 7.86-.01 7.86s.368-.36.368-.36-.368-.36-.368-.36S7.274-.01 7.274-.01s.736.722.736.722S1.094 7.5 1.094 7.5s6.916 6.788 6.916 6.788z" id="code-path-1" class="cls-3"/><path d="M24.01 7.86s-7.284 7.15-7.284 7.15-.736-.722-.736-.722S22.906 7.5 22.906 7.5 15.99.712 15.99.712s.736-.722.736-.722 7.284 7.15 7.284 7.15-.368.36-.368.36.368.36.368.36z" id="code-path-2" class="cls-3"/></g></symbol><symbol viewBox="0 0 25 21" id="shape-customize"><title>customize</title><path d="M22.383 13.433s0 3.962 0 3.962c0 1.214-.317 2.117-.953 2.71-.635.59-1.704.886-3.206.886 0 0 0-1.067 0-1.067 1.086-.016 1.862-.222 2.328-.617.466-.396.7-.997.7-1.805 0 0 0-3.784 0-3.784 0-.963.17-1.694.513-2.192.343-.497.888-.825 1.635-.98 0 0 0-.096 0-.096-.747-.157-1.292-.486-1.635-.987-.342-.5-.514-1.265-.514-2.29 0 0 0-3.586 0-3.586 0-.808-.235-1.42-.71-1.84-.472-.42-1.244-.648-2.315-.688 0 0 0-1.058 0-1.058 1.34 0 2.37.304 3.085.91.715.61 1.073 1.5 1.073 2.676 0 0 0 4.114 0 4.114 0 .783.21 1.365.63 1.745.42.38 1.096.578 2.028.594 0 0 0 .94 0 .94-1.77.032-2.656.85-2.656 2.457zM2.67 17.395s0-3.962 0-3.962c0-1.606-.886-2.425-2.658-2.456 0 0 0-.94 0-.94.94-.017 1.618-.217 2.034-.6.416-.385.624-.965.624-1.74 0 0 0-4.114 0-4.114 0-2.344 1.386-3.54 4.16-3.586 0 0 0 1.058 0 1.058-1.064.04-1.834.267-2.312.682-.477.415-.716 1.03-.716 1.846 0 0 0 3.585 0 3.585 0 1.018-.17 1.778-.508 2.28-.34.502-.886.835-1.64 1 0 0 0 .094 0 .094.746.156 1.29.484 1.634.98.343.5.514 1.23.514 2.193 0 0 0 3.785 0 3.785 0 .8.23 1.397.687 1.793.457.396 1.237.605 2.34.63 0 0 0 1.068 0 1.068-1.504 0-2.573-.29-3.208-.88-.636-.587-.953-1.492-.953-2.714z" id="customize-path-1" class="cls-3" fill-rule="evenodd"/></symbol><symbol viewBox="0 0 46 22" id="shape-feather"><title>feather</title><path d="M0 21.893s2.994-2.374 2.994-2.374 7.92.414 11.704-1.32c-.04-.12.02-4.3 4.083-6.33 4.066-2.034 4.9-2.375 4.9-2.375s2.087 2.005 2.996 2.374c-.06.054-1.09-2.328-.817-3.694.055.043 6.804-3.43 6.804-3.43s-.24 1.6.544 2.902c.785 1.3 1.633 2.11 1.633 2.11s-.69-3.475 1.09-5.012c1.778-1.538 5.71-1.175 7.62-2.374C45.463 1.174 46 0 46 0s.027 9.175-8.71 15.298c-5.506 4.037-8.438 1.847-8.438 1.847s0 2.9 0 2.9-5.31 1.42-7.893 1.32c-2.586-.1-3.813-.527-3.813-.527S33.4 15.625 41.1 7.122c.054.158-22.2 16.388-41.1 14.77z" id="feather-path-1" class="cls-3" fill-rule="evenodd"/></symbol><symbol viewBox="0 0 59 22" id="shape-keyboard-icon"><title>keyboard-icon</title><g id="keyboard-icon-keyboard-iconsvg" fill-rule="evenodd"><g id="keyboard-icon-key"><path d="M21 22S1 22 1 22c-.552 0-1-.448-1-1C0 21 0 1 0 1c0-.552.448-1 1-1 0 0 20 0 20 0 .552 0 1 .448 1 1 0 0 0 20 0 20 0 .552-.448 1-1 1zm0-20c0-.552-.448-1-1-1C20 1 2 1 2 1c-.552 0-1 .448-1 1 0 0 0 18 0 18 0 .552.448 1 1 1 0 0 18 0 18 0 .552 0 1-.448 1-1 0 0 0-18 0-18z" id="keyboard-icon-path-1" class="cls-4"/><path d="M13 8s0 6 0 6-5-3-5-3 5-3 5-3z" id="keyboard-icon-path-2" class="cls-4"/></g><g id="keyboard-icon-key-1"><path d="M58 22s-20 0-20 0c-.552 0-1-.448-1-1 0 0 0-20 0-20 0-.552.448-1 1-1 0 0 20 0 20 0 .552 0 1 .448 1 1 0 0 0 20 0 20 0 .552-.448 1-1 1zm0-20c0-.552-.448-1-1-1 0 0-18 0-18 0-.552 0-1 .448-1 1 0 0 0 18 0 18 0 .552.448 1 1 1 0 0 18 0 18 0 .552 0 1-.448 1-1 0 0 0-18 0-18z" id="keyboard-icon-path-3" class="cls-4"/><path d="M46 8s0 6 0 6 5-3 5-3-5-3-5-3z" id="keyboard-icon-path-4" class="cls-4"/></g></g></symbol><symbol viewBox="0 0 17 9" id="shape-link-right"><title>link-right</title><path d="M17.007 4.66S12.52 9.006 12.52 9.006s-.528-.513-.528-.513 3.63-3.518 3.63-3.518S0 4 0 4s15.598 0 15.598 0S11.992.505 11.992.505s.53-.512.53-.512 4.485 4.347 4.485 4.347-.164.16-.164.16.164.16.164.16zM16 4.39s0 .22 0 .22.114-.11.114-.11S16 4.39 16 4.39z" id="link-right-path-1" class="cls-3" fill-rule="evenodd"/></symbol><symbol viewBox="0 0 53 34" id="shape-notification"><title>notification</title><g id="notification-notificationsvg"><circle id="notification-circle-1" class="cls-3" cx="45" cy="8" r="8"/><path d="M42 7s0 1 0 1S0 7 0 7s42 0 42 0z" id="notification-path-1" class="cls-3" fill-rule="evenodd"/><path d="M45 7s1 0 1 0 0 27 0 27-1-27-1-27z" id="notification-path-2" class="cls-3" fill-rule="evenodd"/><path d="M47.862 11.99s-5.847 0-5.847 0 0-1.16 0-1.16 2.1-1.998 2.1-1.998c.62-.6 1.028-1.017 1.218-1.248.192-.232.33-.447.412-.645.085-.2.126-.403.126-.616 0-.316-.09-.552-.276-.706-.185-.155-.43-.233-.74-.233-.324 0-.64.07-.944.21-.306.14-.625.34-.957.6 0 0-.96-1.073-.96-1.073.41-.332.752-.565 1.023-.7.27-.138.567-.243.887-.317.32-.073.68-.11 1.076-.11.52 0 .982.09 1.382.27.4.18.712.43.933.754.22.323.33.694.33 1.11 0 .363-.067.704-.202 1.022-.135.317-.345.644-.63.978-.283.335-.783.81-1.5 1.43 0 0-1.076.953-1.076.953s0 .076 0 .076 3.644 0 3.644 0 0 1.4 0 1.4z" id="notification-path-3" class="cls-6" fill-rule="evenodd"/></g></symbol><symbol viewBox="-1374.1 1394.3 19 16" id="shape-pointer-down"><title>pointer-down</title><path d="M-1359.4 1409.4c-.2-9-6.7-15.1-14.7-15.1.1 0 .2 0 .3 0 8.3-.1 15.1 5.5 15.2 14.8 0 .1 0 .2 0 .3h-.8zM-1359 1410.3l.2-.7-3.8-3.8-.5.5 4.1 4zM-1359 1410.3l-.4-.7 3.8-3.9.5.5-3.9 4.1z"/></symbol><symbol viewBox="0 0 32 18" id="shape-velocity"><title>velocity</title><g id="velocity-velocitysvg" fill-rule="evenodd"><path d="M22.957 18S15.827-.007 15.827-.007s1.732 0 1.732 0 4.77 12.24 4.77 12.24c.63 1.568 1.107 2.938 1.424 4.108 0 0 .102 0 .102 0 .464-1.5.94-2.88 1.425-4.14 0 0 4.77-12.207 4.77-12.207s1.73 0 1.73 0S24.656 18 24.656 18s-1.697 0-1.697 0z" id="velocity-path-1" class="cls-3"/><path d="M13 2s0 1 0 1S0 3 0 3s13-1 13-1z" id="velocity-path-2" class="cls-3"/><path d="M15 9s0 1 0 1-10 0-10 0 10-1 10-1z" id="velocity-path-3" class="cls-3"/><path d="M17 17s0 1 0 1-7 0-7 0 7-1 7-1z" id="velocity-path-4" class="cls-3"/><path d="M27 1s0 1 0 1-5 0-5 0 5-1 5-1z" id="velocity-path-5" class="cls-3"/><path d="M26 6s0 1 0 1-3 0-3 0 3-1 3-1z" id="velocity-path-6" class="cls-3"/></g></symbol></svg>