<svg width="110" height="30" class="c-logo" xmlns="http://www.w3.org/2000/svg" viewBox="0 0 75 16"><path d="M0 6.3v9.6h2.7V3.4C1.1 3.5 0 4.7 0 6.3zM9 5.8c.8-.1 1.7-.1 2.5 0 .5.1.9.6.9 1.1v8.9h2.7V6.4c.2-1.4-.7-2.6-2.1-2.9-.9-.1-1.8-.2-2.7-.1-.9 0-1.8 0-2.7.1-1.3.3-2.2 1.5-2.1 2.9v9.5h2.7V7c-.1-.6.3-1.1.8-1.2zM18 2.9v10.5c0 1.1.8 2.1 1.9 2.4.8.2 1.7.2 2.6.2h1.7v-2.5h-1.5c-.5 0-1 0-1.4-.2-.3-.2-.5-.5-.5-.9V5.9h3.5V3.4h-3.5V0C19.2.1 18 1.4 18 2.9zM30.2 6c.4-.1.8-.1 1.3-.1h1.7V3.4h-1.7c-.9 0-1.8 0-2.7.1-1.3.3-2.2 1.5-2.1 2.9v9.4h2.7V7.1c-.1-.5.3-1 .8-1.1zM43.7 6.3c.1-1.2-.6-2.3-1.7-2.6-.9-.2-1.9-.3-2.9-.2h-3.3v2.4h3.3c.5 0 1 0 1.4.1.3.1.5.5.5.8v.5c0 .4-.3.7-.6.7h-1.1c-.9 0-1.8 0-2.7.1-.9.1-2.4.7-2.4 3.1v1.7c-.2 1.3.6 2.5 1.8 2.9 1 .2 2 .3 2.9.2.9 0 1.8 0 2.7-.1 1.4-.3 2.1-1.3 2.1-3V7.8 6.3zm-2.6 5.9c0 .6-.3 1.1-.9 1.2-.4.1-.9.1-1.3.1-.5 0-1 0-1.4-.1-.4-.2-.7-.6-.6-1.1v-.7c-.1-.6.2-1.1.8-1.3.5-.1.9-.1 1.4-.1h2.1v2zM48.8 3.6c-1.3.2-2.3 1.5-2.1 2.8V13c-.2 1.3.8 2.6 2.1 2.8.9.1 1.8.2 2.7.1h2.9v-2.5h-2.9c-.4 0-.8 0-1.2-.1-.5-.1-.9-.5-.9-1.1V9.6 7c0-.5.3-1 .9-1.1.4-.1.8-.1 1.2-.1h2.8V3.4h-2.8c-.9 0-1.8 0-2.7.2zM56.9 11.5v1.9c0 1.1.8 2.1 1.9 2.4.8.1 1.7.2 2.6.2h1.7v-2.5h-1.5c-.5 0-1 0-1.4-.2-.3-.2-.5-.5-.5-.9V5.9h3.5V3.4h-3.5V0C58.2.1 57 1.4 57 2.9l-.1 8.6zM75 9.7V6.3c.2-1.3-.8-2.6-2.1-2.8-.9-.1-1.8-.2-2.7-.1-.9 0-1.8 0-2.7.1-1.3.2-2.3 1.5-2.1 2.8v6.8c-.2 1.3.8 2.6 2.1 2.8.9.1 1.8.2 2.7.1.9 0 1.8 0 2.7-.1 1.3-.2 2.3-1.5 2.1-2.8V9.7zm-2.7 2.7c0 .5-.3 1-.9 1.1-.8.1-1.7.1-2.5 0-.5-.1-.9-.5-.9-1.1V9.6 6.9c0-.5.3-1 .9-1.1.8-.1 1.7-.1 2.5 0 .5.1.9.5.9 1.1v5.5z"/></svg>