<svg xmlns="http://www.w3.org/2000/svg" width="45" height="45" viewBox="0 0 36.688 30"><path class="mmh" d="M31.374 0c-2.216 0-4.01 2.237-4.01 5s1.794 5 4.01 5 4.01-2.237 4.01-5-1.795-5-4.01-5zM5.308 0c-2.215 0-4.01 2.237-4.01 5s1.8 5 4.01 5 4.01-2.237 4.01-5-1.794-5-4.01-5zm30.888 20.135a1 1 0 0 0-1.37.364 13.893 13.893 0 0 1-.785 1.194C33.49 19.854 31.768 17 26.361 17c-7.929 0-8.02 6.93-8.02 7v4c-8.164 0-13.555-2.454-16.485-7.5a1.001 1.001 0 0 0-1.735 1c3.272 5.64 9.4 8.5 18.22 8.5s14.947-2.859 18.22-8.5a1 1 0 0 0-.365-1.365z"/></svg>